<svg width="13" height="12" viewBox="0 0 13 12" fill="none" xmlns="http://www.w3.org/2000/svg">
<path fill-rule="evenodd" clip-rule="evenodd" d="M6.00253 0.00606265C5.81995 -0.0190472 5.62791 0.0336896 5.48048 0.167107L0.212628 4.93454C-0.0510745 5.17319 -0.0723967 5.58006 0.164915 5.84497C0.403934 6.11178 0.81437 6.13329 1.07997 5.89293L1.47568 5.5348V10.7047V11.0001C1.47568 11.5525 1.92347 12.0002 2.47584 12.0002H2.76464H9.20945H9.49825C10.0506 12.0002 10.4984 11.5525 10.4984 11.0001V10.7047V5.50677L10.9251 5.89293C11.1907 6.13329 11.6011 6.11178 11.8402 5.84497C12.0775 5.58006 12.0561 5.17319 11.7924 4.93454L6.52459 0.167107C6.37716 0.0336896 6.18512 -0.0190472 6.00253 0.00606265ZM2.76464 4.36829V5.22712V6.18496V6.22728V8.70437V9.99992V10.0422V10.7047H3.43167H3.47601H4.76497H7.20912H8.49808H8.54242H9.20945V10.0422V9.99992V8.70437V6.22728V6.18496V5.22712V4.34025L6.00253 1.43798L2.76464 4.36829Z" fill="#5F6368"/>
</svg>
