<svg width="24" height="24" viewBox="0 0 24 24" fill="none" xmlns="http://www.w3.org/2000/svg">
<path d="M10.4443 13.3707V11.0527C10.4443 10.5223 10.655 10.0136 11.0301 9.63852C11.4052 9.26345 11.9139 9.05273 12.4443 9.05273H18.0043C18.5348 9.05273 19.0435 9.26345 19.4185 9.63852C19.7936 10.0136 20.0043 10.5223 20.0043 11.0527V17.9997C20.0043 18.5302 19.7936 19.0389 19.4185 19.4139C19.0435 19.789 18.5348 19.9997 18.0043 19.9997H12.4443C11.9139 19.9997 11.4052 19.789 11.0301 19.4139C10.655 19.0389 10.4443 18.5302 10.4443 17.9997V16.3507" stroke="#A6A3B4" stroke-width="2"/>
<path d="M13.5561 10.627V12.946C13.5561 13.4765 13.3454 13.9852 12.9703 14.3603C12.5952 14.7353 12.0865 14.946 11.5561 14.946H5.99609C5.46566 14.946 4.95695 14.7353 4.58188 14.3603C4.20681 13.9852 3.99609 13.4765 3.99609 12.946V5.99805C3.99609 5.46761 4.20681 4.95891 4.58188 4.58383C4.95695 4.20876 5.46566 3.99805 5.99609 3.99805H11.5561C12.0865 3.99805 12.5952 4.20876 12.9703 4.58383C13.3454 4.95891 13.5561 5.46761 13.5561 5.99805V7.64805" stroke="#A6A3B4" stroke-width="2"/>
</svg>
