<svg width="24" height="24" viewBox="0 0 24 24" fill="none" xmlns="http://www.w3.org/2000/svg">
<path d="M21 12C20.9992 11.7118 20.9404 11.4266 20.8272 11.1616C20.714 10.8965 20.5487 10.6569 20.341 10.457C19.9136 10.0458 19.3431 9.81664 18.75 9.81801H15C15 10.59 14.684 11.33 14.121 11.875C13.5513 12.4234 12.7908 12.7289 12 12.727C11.2092 12.7289 10.4487 12.4234 9.879 11.875C9.60202 11.6086 9.38146 11.2892 9.23045 10.9358C9.07944 10.5825 9.00107 10.2023 9 9.81801H5.25C4.653 9.81801 4.081 10.048 3.659 10.458C3.237 10.865 3 11.42 3 12M21 12V17.818C20.9992 18.1062 20.9404 18.3914 20.8272 18.6564C20.714 18.9215 20.5487 19.1611 20.341 19.361C19.919 19.771 19.347 20 18.75 20H5.25C4.653 20 4.081 19.77 3.659 19.361C3.45129 19.1612 3.2859 18.9216 3.17269 18.6565C3.05948 18.3914 3.00075 18.1063 3 17.818V12M21 12V9.09001M3 12V9.09001M21 9.09001C20.9991 8.80194 20.9402 8.517 20.827 8.25211C20.7138 7.98722 20.5485 7.74778 20.341 7.54801C19.9137 7.13667 19.3432 6.90753 18.75 6.90901H5.25C4.653 6.90901 4.081 7.13901 3.659 7.54901C3.237 7.95601 3 8.51101 3 9.09001M21 9.09001V6.18001C21 5.60201 20.763 5.04701 20.341 4.63801C19.9135 4.22703 19.343 3.99827 18.75 4.00001H5.25C4.653 4.00001 4.081 4.23001 3.659 4.63901C3.237 5.04901 3 5.60301 3 6.18201V9.09001" stroke="#1AA3FF" stroke-width="2" stroke-linecap="round" stroke-linejoin="round"/>
</svg>
