<svg width="24" height="24" viewBox="0 0 24 24" fill="none" xmlns="http://www.w3.org/2000/svg">
<rect width="24" height="24" rx="4" fill="#F1F8FF"/>
<path d="M14.9823 5.85333L18.2083 9.07333M15.7283 11.5473L19.5763 7.70733C19.8959 7.38908 20.1137 6.98302 20.202 6.54074C20.2903 6.09846 20.2451 5.63991 20.0723 5.22335C19.8994 4.80678 19.6066 4.45099 19.2311 4.20118C18.8556 3.95137 18.4143 3.8188 17.9633 3.82033C17.3583 3.82033 16.7783 4.06033 16.3503 4.48733L12.4433 8.38633M11.5403 15.7263L7.01531 20.2433H3.82031V16.9913L8.37831 12.4423" stroke="#1AA3FF" stroke-width="2" stroke-linecap="round" stroke-linejoin="round"/>
<path d="M20.294 16.2286L7.77254 3.70711C7.38201 3.31658 6.74885 3.31658 6.35832 3.70711L3.70809 6.35734C3.31756 6.74787 3.31756 7.38103 3.70809 7.77156L16.2295 20.293C16.6201 20.6835 17.2532 20.6835 17.6437 20.293L20.294 17.6428C20.6845 17.2522 20.6845 16.6191 20.294 16.2286Z" stroke="#1AA3FF" stroke-width="2"/>
<path d="M8.80673 4.74219L7.35473 6.19419M10.5477 6.48419L8.51573 8.51619M12.2897 8.22619L10.8397 9.67719M14.0317 9.96819L11.9997 12.0002M15.7737 11.7102L14.3227 13.1612M17.5157 13.4522L15.4837 15.4842M19.2577 15.1942L17.8067 16.6452M5.05273 16.1392L7.92673 19.0132" stroke="#1AA3FF" stroke-width="2" stroke-linecap="round"/>
</svg>
