<svg width="48" height="48" viewBox="0 0 48 48" fill="none" xmlns="http://www.w3.org/2000/svg">
<g clip-path="url(#clip0_564_2608)">
<path d="M24 48C37.255 48 48 37.255 48 24C48 10.745 37.255 0 24 0C10.745 0 0 10.745 0 24C0 37.255 10.745 48 24 48Z" fill="#FEF5FE"/>
<path d="M19 16V32M29 16V32M15 20H19M29 20H33M15 24H33M15 28H19M29 28H33M16 32H32C32.2652 32 32.5196 31.8946 32.7071 31.7071C32.8946 31.5196 33 31.2652 33 31V17C33 16.7348 32.8946 16.4804 32.7071 16.2929C32.5196 16.1054 32.2652 16 32 16H16C15.7348 16 15.4804 16.1054 15.2929 16.2929C15.1054 16.4804 15 16.7348 15 17V31C15 31.2652 15.1054 31.5196 15.2929 31.7071C15.4804 31.8946 15.7348 32 16 32Z" stroke="#EF8DF8" stroke-width="2" stroke-linecap="round" stroke-linejoin="round"/>
</g>
<defs>
<clipPath id="clip0_564_2608">
<rect width="48" height="48" fill="white"/>
</clipPath>
</defs>
</svg>
