<svg width="18" height="18" viewBox="0 0 18 18" fill="none" xmlns="http://www.w3.org/2000/svg">
<path d="M17 0.999927V5.99993H16.418M16.418 5.99993C15.7542 4.35806 14.5643 2.98284 13.035 2.08979C11.5056 1.19674 9.7232 0.83634 7.96703 1.06507C6.21086 1.29379 4.58021 2.09872 3.33063 3.3537C2.08105 4.60869 1.28315 6.24279 1.062 7.99993M16.418 5.99993H12M1 16.9999V11.9999H1.581M1.581 11.9999C2.24581 13.6408 3.43597 15.015 4.96517 15.9072C6.49436 16.7995 8.27626 17.1594 10.0319 16.9308C11.7875 16.7022 13.4178 15.8978 14.6675 14.6437C15.9171 13.3895 16.7156 11.7564 16.938 9.99993M1.581 11.9999H6" stroke="#BAE3FF" stroke-width="2" stroke-linecap="round" stroke-linejoin="round"/>
</svg>
