<svg width="48" height="48" viewBox="0 0 48 48" fill="none" xmlns="http://www.w3.org/2000/svg">
<g clip-path="url(#clip0_285_1160)">
<mask id="mask0_285_1160" style="mask-type:luminance" maskUnits="userSpaceOnUse" x="0" y="0" width="48" height="48">
<path d="M0 0H48V48H0V0Z" fill="white"/>
</mask>
<g mask="url(#mask0_285_1160)">
<path d="M24 48C37.255 48 48 37.255 48 24C48 10.745 37.255 0 24 0C10.745 0 0 10.745 0 24C0 37.255 10.745 48 24 48Z" fill="#F1F8FF"/>
<path d="M26.6406 20.05H23.3776C22.8538 20.0503 22.3516 20.2584 21.9813 20.6288C21.611 20.9991 21.4028 21.5013 21.4026 22.025C21.4026 23.115 22.2866 24 23.3776 24H25.1006C26.1906 24 27.0756 24.885 27.0756 25.976C27.0754 26.2354 27.0242 26.4922 26.9248 26.7317C26.8255 26.9713 26.6799 27.1889 26.4964 27.3722C26.3129 27.5555 26.0951 27.7009 25.8554 27.8C25.6158 27.8992 25.3589 27.9501 25.0996 27.95H21.8366M24.2396 20.05V18.732M24.2396 29.268V27.951M21.3656 15C17.3976 16.07 14.4766 19.694 14.4766 24C14.4766 28.306 17.3966 31.93 21.3656 33" stroke="#1AA3FF" stroke-width="2" stroke-linecap="round"/>
<path d="M26.6338 15C30.6018 16.07 33.5228 19.694 33.5228 24C33.5228 28.306 30.6028 31.93 26.6338 33" stroke="#1AA3FF" stroke-width="2" stroke-linecap="round"/>
</g>
</g>
<defs>
<clipPath id="clip0_285_1160">
<rect width="48" height="48" fill="white"/>
</clipPath>
</defs>
</svg>
