<svg width="24" height="24" viewBox="0 0 24 24" fill="none" xmlns="http://www.w3.org/2000/svg">
<path d="M14.6406 8.05H11.3776C10.8538 8.05 10.3514 8.25808 9.98103 8.62846C9.61064 8.99885 9.40256 9.5012 9.40256 10.025C9.40256 11.115 10.2866 12 11.3776 12H13.1006C14.1906 12 15.0756 12.884 15.0756 13.976C15.075 14.4997 14.8666 15.0018 14.4961 15.372C14.1256 15.7421 13.6233 15.95 13.0996 15.95H9.83756M12.2396 8.05V6.731M12.2396 17.268V15.951M9.36556 3C5.39756 4.07 2.47656 7.694 2.47656 12C2.47656 16.306 5.39656 19.93 9.36556 21" stroke="#1AA3FF" stroke-width="2" stroke-linecap="round"/>
<path d="M14.6338 3C18.6018 4.07 21.5228 7.694 21.5228 12C21.5228 16.306 18.6028 19.93 14.6338 21" stroke="#1AA3FF" stroke-width="2" stroke-linecap="round"/>
</svg>
